# xmcd CD database file generated by LOLA_Freedb v0.9beta0
# 
# Track frame offsets:
#      150
#      17303
#      33206
#      52535
#      70403
#      82810
#      98881
#      111592
#      124859
#      140435
#      155453
# 
# Disc length: 2313 seconds
# 
# Revision: 0 
# Processed by: cddbd v1.5.2PL0 Copyright (c) Steve Scherf et al.
# Submitted via: LOLA_Freedb v0.9beta0
# 
DISCID=8109070b
DTITLE=John and Kim D'Agostino - John and Kim Made in Nashville
DYEAR=2010
DGENRE=
TTITLE0=John and Kim D'Agostino - Right Kind Of Life
TTITLE1=John and Kim D'Agostino - Girly Girl
TTITLE2=John and Kim D'Agostino - Break Away
TTITLE3=John and Kim D'Agostino - Ain't Too Late
TTITLE4=John and Kim D'Agostino - Standing There
TTITLE5=John and Kim D'Agostino - Back To The Top
TTITLE6=John and Kim D'Agostino - Missing You
TTITLE7=John and Kim D'Agostino - Do What You Gotta Do
TTITLE8=John and Kim D'Agostino - Words
TTITLE9=John and Kim D'Agostino - Never Too Old To Dream
TTITLE10=John and Kim D'Agostino - Addiction
EXTD=
EXTT0=Performed by Ron Wallace
EXTT1=Performed by Rachel Williams
EXTT2=Performed by Ron Wallace
EXTT3=Performed by Tim Buppert
EXTT4=Performed by Rachel Williams
EXTT5=Performed by Tim Buppert
EXTT6=Performed by Rachel Williams
EXTT7=Performed by Tim Buppert
EXTT8=Performed by Ron Wallace
EXTT9=Performed by Rachel Williams
EXTT10=Performed by Ronnie Kimball
PLAYORDER=
